<?xml version="1.0" encoding="UTF-8" standalone="no"?>
<svg
   xmlns:dc="http://purl.org/dc/elements/1.1/"
   xmlns:cc="http://creativecommons.org/ns#"
   xmlns:rdf="http://www.w3.org/1999/02/22-rdf-syntax-ns#"
   xmlns:svg="http://www.w3.org/2000/svg"
   xmlns="http://www.w3.org/2000/svg"
   viewBox="0 0 690.66669 580"
   height="580"
   width="690.66669"
   xml:space="preserve"
   id="svg2"
   version="1.1"><metadata
     id="metadata8"><rdf:RDF><cc:Work
         rdf:about=""><dc:format>image/svg+xml</dc:format><dc:type
           rdf:resource="http://purl.org/dc/dcmitype/StillImage" /><dc:title></dc:title></cc:Work></rdf:RDF></metadata><defs
     id="defs6" /><g
     transform="matrix(1.3333333,0,0,-1.3333333,0,580)"
     id="g10"><g
       id="g12"><g
         transform="matrix(1,0,0,-1,0,435)"
         id="g14"><path
           id="path16"
           style="fill:#ffffff;fill-opacity:1;fill-rule:nonzero;stroke:#ffffff;stroke-width:1.25;stroke-linecap:butt;stroke-linejoin:miter;stroke-miterlimit:4;stroke-dasharray:none;stroke-opacity:1"
           d="m 0.133,0 h 517.23 V 435 H 0.133 Z" /></g><g
         transform="matrix(1,0,0,-1,0,435)"
         id="g18"><path
           id="path20"
           style="fill:none;stroke:#000000;stroke-width:1.25;stroke-linecap:butt;stroke-linejoin:miter;stroke-miterlimit:4;stroke-dasharray:none;stroke-opacity:1"
           d="m 254.863,15 h 247.5 v 245 h -247.5 z" /></g><g
         transform="matrix(1,0,0,-1,0,435)"
         id="g22"><path
           id="path24"
           style="fill:#add8e6;fill-opacity:1;fill-rule:nonzero;stroke:#000000;stroke-width:1.25;stroke-linecap:butt;stroke-linejoin:miter;stroke-miterlimit:4;stroke-dasharray:none;stroke-opacity:1"
           d="m 184.957,47.5 c 0,-12.426 -30.82,-22.5 -68.844,-22.5 -38.019,0 -68.84,10.074 -68.84,22.5 0,12.426 30.821,22.5 68.84,22.5 38.024,0 68.844,-10.074 68.844,-22.5 z" /></g><text
         id="text28"
         style="font-variant:normal;font-weight:normal;font-size:17.4987793px;font-family:Tahoma;-inkscape-font-specification:Tahoma;writing-mode:lr-tb;fill:#000000;fill-opacity:1;fill-rule:nonzero;stroke:none"
         transform="matrix(1,0,0,-1,76.757813,382.25)"><tspan
           id="tspan26"
           y="0"
           x="0 11.864172 21.348511 29.415447 39.162266 53.843742 63.0481 72.794922">Document</tspan></text>
<g
         transform="matrix(1,0,0,-1,0,435)"
         id="g30"><path
           id="path32"
           style="fill:#add8e6;fill-opacity:1;fill-rule:nonzero;stroke:#000000;stroke-width:1.25;stroke-linecap:butt;stroke-linejoin:miter;stroke-miterlimit:4;stroke-dasharray:none;stroke-opacity:1"
           d="m 166.871,137.5 c 0,-12.426 -22.726,-22.5 -50.758,-22.5 -28.031,0 -50.754,10.074 -50.754,22.5 0,12.426 22.723,22.5 50.754,22.5 28.032,0 50.758,-10.074 50.758,-22.5 z" /></g><text
         id="text36"
         style="font-variant:normal;font-weight:normal;font-size:17.4987793px;font-family:Tahoma;-inkscape-font-specification:Tahoma;writing-mode:lr-tb;fill:#000000;fill-opacity:1;fill-rule:nonzero;stroke:none"
         transform="matrix(1,0,0,-1,86.230469,292.25)"><tspan
           id="tspan34"
           y="0"
           x="0 12.721612 22.468431 28.313025 42.994499 46.984222">&lt;html&gt;</tspan></text>
<g
         transform="matrix(1,0,0,-1,0,435)"
         id="g38"><path
           id="path40"
           style="fill:none;stroke:#000000;stroke-width:1.25;stroke-linecap:butt;stroke-linejoin:miter;stroke-miterlimit:4;stroke-dasharray:none;stroke-opacity:1"
           d="m 116.113,70.211 c 0,9.625 0,21.07 0,31.769" /></g><g
         transform="matrix(1,0,0,-1,0,435)"
         id="g42"><path
           id="path44"
           style="fill:#000000;fill-opacity:1;fill-rule:nonzero;stroke:#000000;stroke-width:1.25;stroke-linecap:butt;stroke-linejoin:miter;stroke-miterlimit:4;stroke-dasharray:none;stroke-opacity:1"
           d="m 120.492,101.984 -4.379,12.5 -4.371,-12.5 z" /></g><g
         transform="matrix(1,0,0,-1,0,435)"
         id="g46"><path
           id="path48"
           style="fill:#add8e6;fill-opacity:1;fill-rule:nonzero;stroke:#000000;stroke-width:1.25;stroke-linecap:butt;stroke-linejoin:miter;stroke-miterlimit:4;stroke-dasharray:none;stroke-opacity:1"
           d="m 114.336,227.5 c 0,-12.426 -24.387,-22.5 -54.473,-22.5 -30.082,0 -54.468,10.074 -54.468,22.5 0,12.426 24.386,22.5 54.468,22.5 30.086,0 54.473,-10.074 54.473,-22.5 z" /></g><text
         id="text52"
         style="font-variant:normal;font-weight:normal;font-size:17.4987793px;font-family:Tahoma;-inkscape-font-specification:Tahoma;writing-mode:lr-tb;fill:#000000;fill-opacity:1;fill-rule:nonzero;stroke:none"
         transform="matrix(1,0,0,-1,28.222656,202.25)"><tspan
           id="tspan50"
           y="0"
           x="0 12.721612 22.468431 31.672791 40.842152 50.501476">&lt;head&gt;</tspan></text>
<g
         transform="matrix(1,0,0,-1,0,435)"
         id="g54"><path
           id="path56"
           style="fill:none;stroke:#000000;stroke-width:1.25;stroke-linecap:butt;stroke-linejoin:miter;stroke-miterlimit:4;stroke-dasharray:none;stroke-opacity:1"
           d="M 102.5,159.285 C 95.848,169.93 87.703,182.961 80.32,194.77" /></g><g
         transform="matrix(1,0,0,-1,0,435)"
         id="g58"><path
           id="path60"
           style="fill:#000000;fill-opacity:1;fill-rule:nonzero;stroke:#000000;stroke-width:1.25;stroke-linecap:butt;stroke-linejoin:miter;stroke-miterlimit:4;stroke-dasharray:none;stroke-opacity:1"
           d="m 83.887,197.32 -10.336,8.282 2.914,-12.918 z" /></g><g
         transform="matrix(1,0,0,-1,0,435)"
         id="g62"><path
           id="path64"
           style="fill:#add8e6;fill-opacity:1;fill-rule:nonzero;stroke:#000000;stroke-width:1.25;stroke-linecap:butt;stroke-linejoin:miter;stroke-miterlimit:4;stroke-dasharray:none;stroke-opacity:1"
           d="m 245.484,227.5 c 0,-12.426 -24.339,-22.5 -54.371,-22.5 -30.027,0 -54.367,10.074 -54.367,22.5 0,12.426 24.34,22.5 54.367,22.5 30.032,0 54.371,-10.074 54.371,-22.5 z" /></g><text
         id="text68"
         style="font-variant:normal;font-weight:normal;font-size:17.4987793px;font-family:Tahoma;-inkscape-font-specification:Tahoma;writing-mode:lr-tb;fill:#000000;fill-opacity:1;fill-rule:nonzero;stroke:none"
         transform="matrix(1,0,0,-1,159.60547,202.25)"><tspan
           id="tspan66"
           y="0"
           x="0 12.721612 22.380938 31.865276 41.524601 50.238995">&lt;body&gt;</tspan></text>
<g
         transform="matrix(1,0,0,-1,0,435)"
         id="g70"><path
           id="path72"
           style="fill:none;stroke:#000000;stroke-width:1.25;stroke-linecap:butt;stroke-linejoin:miter;stroke-miterlimit:4;stroke-dasharray:none;stroke-opacity:1"
           d="m 133.891,158.828 c 9.203,11.047 20.625,24.754 30.836,37.008" /></g><g
         transform="matrix(1,0,0,-1,0,435)"
         id="g74"><path
           id="path76"
           style="fill:#000000;fill-opacity:1;fill-rule:nonzero;stroke:#000000;stroke-width:1.25;stroke-linecap:butt;stroke-linejoin:miter;stroke-miterlimit:4;stroke-dasharray:none;stroke-opacity:1"
           d="m 168.305,193.297 4.644,12.402 -11.363,-6.801 z" /></g><g
         transform="matrix(1,0,0,-1,0,435)"
         id="g78"><path
           id="path80"
           style="fill:#add8e6;fill-opacity:1;fill-rule:nonzero;stroke:#000000;stroke-width:1.25;stroke-linecap:butt;stroke-linejoin:miter;stroke-miterlimit:4;stroke-dasharray:none;stroke-opacity:1"
           d="m 106.328,317.5 c 0,-12.426 -20.801,-22.5 -46.465,-22.5 -25.66,0 -46.461,10.074 -46.461,22.5 0,12.426 20.801,22.5 46.461,22.5 25.664,0 46.465,-10.074 46.465,-22.5 z" /></g><text
         id="text84"
         style="font-variant:normal;font-weight:normal;font-size:17.4987793px;font-family:Tahoma;-inkscape-font-specification:Tahoma;writing-mode:lr-tb;fill:#000000;fill-opacity:1;fill-rule:nonzero;stroke:none"
         transform="matrix(1,0,0,-1,32.675781,112.25)"><tspan
           id="tspan82"
           y="0"
           x="0 12.721612 18.566204 22.555925 28.400518 32.39024 41.594597">&lt;title&gt;</tspan></text>
<g
         transform="matrix(1,0,0,-1,0,435)"
         id="g86"><path
           id="path88"
           style="fill:none;stroke:#000000;stroke-width:1.25;stroke-linecap:butt;stroke-linejoin:miter;stroke-miterlimit:4;stroke-dasharray:none;stroke-opacity:1"
           d="m 59.863,250.211 c 0,9.625 0,21.07 0,31.769" /></g><g
         transform="matrix(1,0,0,-1,0,435)"
         id="g90"><path
           id="path92"
           style="fill:#000000;fill-opacity:1;fill-rule:nonzero;stroke:#000000;stroke-width:1.25;stroke-linecap:butt;stroke-linejoin:miter;stroke-miterlimit:4;stroke-dasharray:none;stroke-opacity:1"
           d="m 64.242,281.984 -4.379,12.5 -4.371,-12.5 z" /></g><g
         transform="matrix(1,0,0,-1,0,435)"
         id="g94"><path
           id="path96"
           style="fill:#add8e6;fill-opacity:1;fill-rule:nonzero;stroke:#000000;stroke-width:1.25;stroke-linecap:butt;stroke-linejoin:miter;stroke-miterlimit:4;stroke-dasharray:none;stroke-opacity:1"
           d="m 231.242,317.5 c 0,-12.426 -18.527,-22.5 -41.379,-22.5 -22.851,0 -41.375,10.074 -41.375,22.5 0,12.426 18.524,22.5 41.375,22.5 22.852,0 41.379,-10.074 41.379,-22.5 z" /></g><text
         id="text100"
         style="font-variant:normal;font-weight:normal;font-size:17.4987793px;font-family:Tahoma;-inkscape-font-specification:Tahoma;writing-mode:lr-tb;fill:#000000;fill-opacity:1;fill-rule:nonzero;stroke:none"
         transform="matrix(1,0,0,-1,167.48047,112.25)"><tspan
           id="tspan98"
           y="0"
           x="0 12.721612 22.468431 32.005268">&lt;h1&gt;</tspan></text>
<g
         transform="matrix(1,0,0,-1,0,435)"
         id="g102"><path
           id="path104"
           style="fill:none;stroke:#000000;stroke-width:1.25;stroke-linecap:butt;stroke-linejoin:miter;stroke-miterlimit:4;stroke-dasharray:none;stroke-opacity:1"
           d="m 190.801,250.211 c -0.137,9.625 -0.293,21.07 -0.442,31.769" /></g><g
         transform="matrix(1,0,0,-1,0,435)"
         id="g106"><path
           id="path108"
           style="fill:#000000;fill-opacity:1;fill-rule:nonzero;stroke:#000000;stroke-width:1.25;stroke-linecap:butt;stroke-linejoin:miter;stroke-miterlimit:4;stroke-dasharray:none;stroke-opacity:1"
           d="m 194.734,282.047 -4.55,12.437 -4.2,-12.558 z" /></g><g
         transform="matrix(1,0,0,-1,0,435)"
         id="g110"><path
           id="path112"
           style="fill:#add8e6;fill-opacity:1;fill-rule:nonzero;stroke:#000000;stroke-width:1.25;stroke-linecap:butt;stroke-linejoin:miter;stroke-miterlimit:4;stroke-dasharray:none;stroke-opacity:1"
           d="m 347.195,317.5 c 0,-12.426 -15.593,-22.5 -34.832,-22.5 -19.234,0 -34.832,10.074 -34.832,22.5 0,12.426 15.598,22.5 34.832,22.5 19.239,0 34.832,-10.074 34.832,-22.5 z" /></g><text
         id="text116"
         style="font-variant:normal;font-weight:normal;font-size:17.4987793px;font-family:Tahoma;-inkscape-font-specification:Tahoma;writing-mode:lr-tb;fill:#000000;fill-opacity:1;fill-rule:nonzero;stroke:none"
         transform="matrix(1,0,0,-1,295.04297,112.25)"><tspan
           id="tspan114"
           y="0"
           x="0 12.721612 21.890972">&lt;a&gt;</tspan></text>
<g
         transform="matrix(1,0,0,-1,0,435)"
         id="g118"><path
           id="path120"
           style="fill:none;stroke:#000000;stroke-width:1.25;stroke-linecap:butt;stroke-linejoin:miter;stroke-miterlimit:4;stroke-dasharray:none;stroke-opacity:1"
           d="m 218.023,247.473 c 18.016,13.371 41.852,31.066 61.055,45.32" /></g><g
         transform="matrix(1,0,0,-1,0,435)"
         id="g122"><path
           id="path124"
           style="fill:#000000;fill-opacity:1;fill-rule:nonzero;stroke:#000000;stroke-width:1.25;stroke-linecap:butt;stroke-linejoin:miter;stroke-miterlimit:4;stroke-dasharray:none;stroke-opacity:1"
           d="m 281.777,289.348 7.43,10.961 -12.644,-3.938 z" /></g><g
         transform="matrix(1,0,0,-1,0,435)"
         id="g126"><path
           id="path128"
           style="fill:#d3d3d3;fill-opacity:1;fill-rule:nonzero;stroke:#000000;stroke-width:1.25;stroke-linecap:butt;stroke-linejoin:miter;stroke-miterlimit:4;stroke-dasharray:none;stroke-opacity:1"
           d="M 19.801,385 H 99.93 v 45 H 19.801 Z" /></g><text
         id="text132"
         style="font-variant:normal;font-weight:normal;font-size:17.4987793px;font-family:Tahoma;-inkscape-font-specification:Tahoma;writing-mode:lr-tb;fill:#000000;fill-opacity:1;fill-rule:nonzero;stroke:none"
         transform="matrix(1,0,0,-1,30.621094,22.25)"><tspan
           id="tspan130"
           y="0"
           x="0 7.0170102 16.76383 20.753551 24.743273 34.402599 43.606956 51.411411">&quot;Slides&quot;</tspan></text>
<g
         transform="matrix(1,0,0,-1,0,435)"
         id="g134"><path
           id="path136"
           style="fill:none;stroke:#000000;stroke-width:1.25;stroke-linecap:butt;stroke-linejoin:miter;stroke-miterlimit:4;stroke-dasharray:none;stroke-opacity:1"
           d="m 59.863,340.211 c 0,9.625 0,21.07 0,31.769" /></g><g
         transform="matrix(1,0,0,-1,0,435)"
         id="g138"><path
           id="path140"
           style="fill:#000000;fill-opacity:1;fill-rule:nonzero;stroke:#000000;stroke-width:1.25;stroke-linecap:butt;stroke-linejoin:miter;stroke-miterlimit:4;stroke-dasharray:none;stroke-opacity:1"
           d="m 64.242,371.984 -4.379,12.5 -4.371,-12.5 z" /></g><g
         transform="matrix(1,0,0,-1,0,435)"
         id="g142"><path
           id="path144"
           style="fill:#d3d3d3;fill-opacity:1;fill-rule:nonzero;stroke:#000000;stroke-width:1.25;stroke-linecap:butt;stroke-linejoin:miter;stroke-miterlimit:4;stroke-dasharray:none;stroke-opacity:1"
           d="m 123.191,385 h 133.348 v 45 H 123.191 Z" /></g><text
         id="text148"
         style="font-variant:normal;font-weight:normal;font-size:17.4987793px;font-family:Tahoma;-inkscape-font-specification:Tahoma;writing-mode:lr-tb;fill:#000000;fill-opacity:1;fill-rule:nonzero;stroke:none"
         transform="matrix(1,0,0,-1,134.09375,22.25)"><tspan
           id="tspan146"
           y="0"
           x="0 7.0170102 16.76383 20.753551 24.743273 34.402599 43.606956 49.066578 60.878254 70.082611 79.251968 88.911293 98.115654 104.41521">&quot;Slide Header&quot;</tspan></text>
<g
         transform="matrix(1,0,0,-1,0,435)"
         id="g150"><path
           id="path152"
           style="fill:none;stroke:#000000;stroke-width:1.25;stroke-linecap:butt;stroke-linejoin:miter;stroke-miterlimit:4;stroke-dasharray:none;stroke-opacity:1"
           d="m 189.863,340.211 c 0,9.625 0,21.07 0,31.769" /></g><g
         transform="matrix(1,0,0,-1,0,435)"
         id="g154"><path
           id="path156"
           style="fill:#000000;fill-opacity:1;fill-rule:nonzero;stroke:#000000;stroke-width:1.25;stroke-linecap:butt;stroke-linejoin:miter;stroke-miterlimit:4;stroke-dasharray:none;stroke-opacity:1"
           d="m 194.242,371.984 -4.379,12.5 -4.371,-12.5 z" /></g><g
         transform="matrix(1,0,0,-1,0,435)"
         id="g158"><path
           id="path160"
           style="fill:#d3d3d3;fill-opacity:1;fill-rule:nonzero;stroke:#000000;stroke-width:1.25;stroke-linecap:butt;stroke-linejoin:miter;stroke-miterlimit:4;stroke-dasharray:none;stroke-opacity:1"
           d="m 278.613,385 h 67.5 v 45 h -67.5 z" /></g><text
         id="text164"
         style="font-variant:normal;font-weight:normal;font-size:17.4987793px;font-family:Tahoma;-inkscape-font-specification:Tahoma;writing-mode:lr-tb;fill:#000000;fill-opacity:1;fill-rule:nonzero;stroke:none"
         transform="matrix(1,0,0,-1,289.75,22.25)"><tspan
           id="tspan162"
           y="0"
           x="0 7.0170102 15.713903 19.703625 29.450445 38.164837">&quot;Link&quot;</tspan></text>
<g
         transform="matrix(1,0,0,-1,0,435)"
         id="g166"><path
           id="path168"
           style="fill:none;stroke:#000000;stroke-width:1.25;stroke-linecap:butt;stroke-linejoin:miter;stroke-miterlimit:4;stroke-dasharray:none;stroke-opacity:1"
           d="m 312.363,340.211 c 0,9.625 0,21.07 0,31.769" /></g><g
         transform="matrix(1,0,0,-1,0,435)"
         id="g170"><path
           id="path172"
           style="fill:#000000;fill-opacity:1;fill-rule:nonzero;stroke:#000000;stroke-width:1.25;stroke-linecap:butt;stroke-linejoin:miter;stroke-miterlimit:4;stroke-dasharray:none;stroke-opacity:1"
           d="m 316.742,371.984 -4.379,12.5 -4.371,-12.5 z" /></g><g
         transform="matrix(1,0,0,-1,0,435)"
         id="g174"><path
           id="path176"
           style="fill:#fa8072;fill-opacity:1;fill-rule:nonzero;stroke:#000000;stroke-width:1.25;stroke-linecap:butt;stroke-linejoin:miter;stroke-miterlimit:4;stroke-dasharray:none;stroke-opacity:1"
           d="m 421.113,385 c 0,0 -37.5,0 -37.5,0 -7.5,0 -15,7.5 -15,15 0,0 0,15 0,15 0,7.5 7.5,15 15,15 0,0 37.5,0 37.5,0 7.5,0 15,-7.5 15,-15 0,0 0,-15 0,-15 0,-7.5 -7.5,-15 -15,-15" /></g><text
         id="text180"
         style="font-variant:normal;font-weight:normal;font-size:17.4987793px;font-family:Tahoma;-inkscape-font-specification:Tahoma;writing-mode:lr-tb;fill:#000000;fill-opacity:1;fill-rule:nonzero;stroke:none"
         transform="matrix(1,0,0,-1,379.91797,22.25)"><tspan
           id="tspan178"
           y="0"
           x="0 7.0170102 16.76383 23.063391 32.26775 37.832359">&quot;href&quot;</tspan></text>
<g
         transform="matrix(1,0,0,-1,0,435)"
         id="g182"><path
           id="path184"
           style="fill:none;stroke:#000000;stroke-width:1.25;stroke-linecap:butt;stroke-linejoin:miter;stroke-miterlimit:4;stroke-dasharray:none;stroke-opacity:1"
           d="m 331.453,336.586 c 14.137,14.141 33.453,33.453 48.356,48.355" /></g><g
         transform="matrix(1,0,0,-1,0,435)"
         id="g186"><path
           id="path188"
           style="fill:#add8e6;fill-opacity:1;fill-rule:nonzero;stroke:#000000;stroke-width:1.25;stroke-linecap:butt;stroke-linejoin:miter;stroke-miterlimit:4;stroke-dasharray:none;stroke-opacity:1"
           d="m 492.363,47.5 c 0,-12.426 -15.109,-22.5 -33.75,-22.5 -18.636,0 -33.75,10.074 -33.75,22.5 0,12.426 15.114,22.5 33.75,22.5 18.641,0 33.75,-10.074 33.75,-22.5 z" /></g><g
         transform="matrix(1,0,0,-1,0,435)"
         id="g190"><path
           id="path192"
           style="fill:#fa8072;fill-opacity:1;fill-rule:nonzero;stroke:#000000;stroke-width:1.25;stroke-linecap:butt;stroke-linejoin:miter;stroke-miterlimit:4;stroke-dasharray:none;stroke-opacity:1"
           d="m 477.363,115 c 0,0 -37.5,0 -37.5,0 -7.5,0 -15,7.5 -15,15 0,0 0,15 0,15 0,7.5 7.5,15 15,15 0,0 37.5,0 37.5,0 7.5,0 15,-7.5 15,-15 0,0 0,-15 0,-15 0,-7.5 -7.5,-15 -15,-15" /></g><text
         id="text198"
         style="font-variant:normal;font-weight:normal;font-size:17.4987793px;font-family:Tahoma;-inkscape-font-specification:Tahoma;writing-mode:lr-tb;fill:#000000;fill-opacity:1;fill-rule:nonzero;stroke:none"
         transform="matrix(1,0,0,-1,277.49609,382.25)"><tspan
           id="tspan194"
           y="0"
           x="0 11.811676 22.013464 35.487522 44.184418 49.644035 59.46085 63.450573 72.65493 87.336403 96.540764 106.28758">HTML Element</tspan><tspan
           id="tspan196"
           y="90"
           x="-2.226562 9.5851135 19.786901 33.260963 41.957855 47.417473 57.899242 63.743835 69.588425 75.887985 79.877708 89.537033 99.283852 105.12845">HTML Attribute</tspan></text>
<g
         transform="matrix(1,0,0,-1,0,435)"
         id="g200"><path
           id="path202"
           style="fill:#d3d3d3;fill-opacity:1;fill-rule:nonzero;stroke:#000000;stroke-width:1.25;stroke-linecap:butt;stroke-linejoin:miter;stroke-miterlimit:4;stroke-dasharray:none;stroke-opacity:1"
           d="m 424.863,205 h 67.5 v 45 h -67.5 z" /></g><text
         id="text206"
         style="font-variant:normal;font-weight:normal;font-size:17.4987793px;font-family:Tahoma;-inkscape-font-specification:Tahoma;writing-mode:lr-tb;fill:#000000;fill-opacity:1;fill-rule:nonzero;stroke:none"
         transform="matrix(1,0,0,-1,291.23828,202.25)"><tspan
           id="tspan204"
           y="0"
           x="0 10.201788 19.406145 28.068041 33.912632 39.372253 49.119072 54.963665 61.263226 65.252945 74.999763">Text String</tspan></text>
</g></g></svg>