<?xml version="1.0" standalone="no"?><!DOCTYPE svg PUBLIC "-//W3C//DTD SVG 1.1//EN" "http://www.w3.org/Graphics/SVG/1.1/DTD/svg11.dtd"><svg xmlns:xlink="http://www.w3.org/1999/xlink" version="1.1" style="font-family:dosis, sans-serif;font-size:12px;" xmlns="http://www.w3.org/2000/svg" width="600" height="400"><desc>Created with Highcharts 4.2.7</desc><defs><linearGradient x1="0" y1="0" x2="1" y2="1" id="highcharts-64"><stop offset="0" stop-color="rgb(255, 255, 255)" stop-opacity="1"></stop><stop offset="1" stop-color="rgb(240, 240, 255)" stop-opacity="1"></stop></linearGradient><clipPath id="highcharts-65"><rect x="0" y="0" width="526" height="284"></rect></clipPath></defs><rect x="1" y="1" width="598" height="398" fill="url(#highcharts-64)" stroke="#4572a7" stroke-width="2" class=" highcharts-background"></rect><rect x="64" y="44" width="526" height="284" fill="none"  stroke="black" stroke-opacity="0.049999999999999996" stroke-width="5" transform="translate(1, 1)"></rect><rect x="64" y="44" width="526" height="284" fill="none"  stroke="black" stroke-opacity="0.09999999999999999" stroke-width="3" transform="translate(1, 1)"></rect><rect x="64" y="44" width="526" height="284" fill="none"  stroke="black" stroke-opacity="0.15" stroke-width="1" transform="translate(1, 1)"></rect><rect x="64" y="44" width="526" height="284" fill="rgb(255, 255, 255)" fill-opacity=" .9"></rect><g class="highcharts-grid"><path fill="none" d="M 121.5 44 L 121.5 328" stroke="#C0C0C0" stroke-width="1" opacity="1"></path><path fill="none" d="M 180.5 44 L 180.5 328" stroke="#C0C0C0" stroke-width="1" opacity="1"></path><path fill="none" d="M 238.5 44 L 238.5 328" stroke="#C0C0C0" stroke-width="1" opacity="1"></path><path fill="none" d="M 297.5 44 L 297.5 328" stroke="#C0C0C0" stroke-width="1" opacity="1"></path><path fill="none" d="M 355.5 44 L 355.5 328" stroke="#C0C0C0" stroke-width="1" opacity="1"></path><path fill="none" d="M 414.5 44 L 414.5 328" stroke="#C0C0C0" stroke-width="1" opacity="1"></path><path fill="none" d="M 472.5 44 L 472.5 328" stroke="#C0C0C0" stroke-width="1" opacity="1"></path><path fill="none" d="M 531.5 44 L 531.5 328" stroke="#C0C0C0" stroke-width="1" opacity="1"></path><path fill="none" d="M 590.5 44 L 590.5 328" stroke="#C0C0C0" stroke-width="1" opacity="1"></path><path fill="none" d="M 63.5 44 L 63.5 328" stroke="#C0C0C0" stroke-width="1" opacity="1"></path></g><g class="highcharts-grid"><path fill="none" d="M 64 328.5 L 590 328.5" stroke="#E0E0E0" stroke-width="1" opacity="1"></path><path fill="none" d="M 64 314.5 L 590 314.5" stroke="#E0E0E0" stroke-width="1" opacity="1"></path><path fill="none" d="M 64 300.5 L 590 300.5" stroke="#E0E0E0" stroke-width="1" opacity="1"></path><path fill="none" d="M 64 285.5 L 590 285.5" stroke="#E0E0E0" stroke-width="1" opacity="1"></path><path fill="none" d="M 64 271.5 L 590 271.5" stroke="#E0E0E0" stroke-width="1" opacity="1"></path><path fill="none" d="M 64 257.5 L 590 257.5" stroke="#E0E0E0" stroke-width="1" opacity="1"></path><path fill="none" d="M 64 243.5 L 590 243.5" stroke="#E0E0E0" stroke-width="1" opacity="1"></path><path fill="none" d="M 64 229.5 L 590 229.5" stroke="#E0E0E0" stroke-width="1" opacity="1"></path><path fill="none" d="M 64 214.5 L 590 214.5" stroke="#E0E0E0" stroke-width="1" opacity="1"></path><path fill="none" d="M 64 200.5 L 590 200.5" stroke="#E0E0E0" stroke-width="1" opacity="1"></path><path fill="none" d="M 64 186.5 L 590 186.5" stroke="#E0E0E0" stroke-width="1" opacity="1"></path><path fill="none" d="M 64 172.5 L 590 172.5" stroke="#E0E0E0" stroke-width="1" opacity="1"></path><path fill="none" d="M 64 158.5 L 590 158.5" stroke="#E0E0E0" stroke-width="1" opacity="1"></path><path fill="none" d="M 64 143.5 L 590 143.5" stroke="#E0E0E0" stroke-width="1" opacity="1"></path><path fill="none" d="M 64 129.5 L 590 129.5" stroke="#E0E0E0" stroke-width="1" opacity="1"></path><path fill="none" d="M 64 115.5 L 590 115.5" stroke="#E0E0E0" stroke-width="1" opacity="1"></path><path fill="none" d="M 64 101.5 L 590 101.5" stroke="#E0E0E0" stroke-width="1" opacity="1"></path><path fill="none" d="M 64 87.5 L 590 87.5" stroke="#E0E0E0" stroke-width="1" opacity="1"></path><path fill="none" d="M 64 72.5 L 590 72.5" stroke="#E0E0E0" stroke-width="1" opacity="1"></path><path fill="none" d="M 64 58.5 L 590 58.5" stroke="#E0E0E0" stroke-width="1" opacity="1"></path><path fill="none" d="M 64 43.5 L 590 43.5" stroke="#E0E0E0" stroke-width="1" opacity="1"></path><path fill="none" d="M 64 328.5 L 590 328.5" stroke="#C0C0C0" stroke-width="1" opacity="1"></path><path fill="none" d="M 64 257.5 L 590 257.5" stroke="#C0C0C0" stroke-width="1" opacity="1"></path><path fill="none" d="M 64 186.5 L 590 186.5" stroke="#C0C0C0" stroke-width="1" opacity="1"></path><path fill="none" d="M 64 115.5 L 590 115.5" stroke="#C0C0C0" stroke-width="1" opacity="1"></path><path fill="none" d="M 64 43.5 L 590 43.5" stroke="#C0C0C0" stroke-width="1" opacity="1"></path></g><rect x="63.5" y="43.5" width="527" height="285" fill="none"></rect><g class="highcharts-axis"><path fill="none" d="M 121.5 328 L 121.5 338" stroke="#000" stroke-width="1" opacity="1"></path><path fill="none" d="M 180.5 328 L 180.5 338" stroke="#000" stroke-width="1" opacity="1"></path><path fill="none" d="M 238.5 328 L 238.5 338" stroke="#000" stroke-width="1" opacity="1"></path><path fill="none" d="M 297.5 328 L 297.5 338" stroke="#000" stroke-width="1" opacity="1"></path><path fill="none" d="M 355.5 328 L 355.5 338" stroke="#000" stroke-width="1" opacity="1"></path><path fill="none" d="M 414.5 328 L 414.5 338" stroke="#000" stroke-width="1" opacity="1"></path><path fill="none" d="M 472.5 328 L 472.5 338" stroke="#000" stroke-width="1" opacity="1"></path><path fill="none" d="M 531.5 328 L 531.5 338" stroke="#000" stroke-width="1" opacity="1"></path><path fill="none" d="M 590.5 328 L 590.5 338" stroke="#000" stroke-width="1" opacity="1"></path><path fill="none" d="M 63.5 328 L 63.5 338" stroke="#000" stroke-width="1" opacity="1"></path><path fill="none" d="M 64 328.5 L 590 328.5" stroke="#000" stroke-width="1"></path></g><g class="highcharts-axis"><path fill="none" d="M 64 328.5 L 54 328.5" stroke="#000" stroke-width="1" opacity="1"></path><path fill="none" d="M 64 257.5 L 54 257.5" stroke="#000" stroke-width="1" opacity="1"></path><path fill="none" d="M 64 186.5 L 54 186.5" stroke="#000" stroke-width="1" opacity="1"></path><path fill="none" d="M 64 115.5 L 54 115.5" stroke="#000" stroke-width="1" opacity="1"></path><path fill="none" d="M 64 43.5 L 54 43.5" stroke="#000" stroke-width="1" opacity="1"></path><text x="24" text-anchor="middle" transform="translate(0,0) rotate(270 24 186)" class=" highcharts-yaxis-title" style="color:#333;font-size:12px;font-family:trebuchet ms, verdana, sans-serif;text-transform:none;font-weight:bold;fill:#333;" y="186">Percent</text><path fill="none" d="M 63.5 44 L 63.5 328" stroke="#000" stroke-width="1"></path></g><g class="highcharts-series-group"><g class="highcharts-series highcharts-series-0" transform="translate(64,44) scale(1 1)" clip-path="url(#highcharts-65)"><rect x="14.5" y="69.5" width="29" height="215" stroke="#FFFFFF" stroke-width="1" fill="#50B432" rx="0" ry="0"></rect><rect x="73.5" y="231.5" width="29" height="53" stroke="#FFFFFF" stroke-width="1" fill="#ED561B" rx="0" ry="0"></rect><rect x="131.5" y="265.5" width="29" height="19" stroke="#FFFFFF" stroke-width="1" fill="#DDDF00" rx="0" ry="0"></rect><rect x="190.5" y="266.5" width="29" height="18" stroke="#FFFFFF" stroke-width="1" fill="#24CBE5" rx="0" ry="0"></rect><rect x="248.5" y="272.5" width="29" height="12" stroke="#FFFFFF" stroke-width="1" fill="#64E572" rx="0" ry="0"></rect><rect x="306.5" y="274.5" width="29" height="10" stroke="#FFFFFF" stroke-width="1" fill="#FF9655" rx="0" ry="0"></rect><rect x="365.5" y="274.5" width="29" height="10" stroke="#FFFFFF" stroke-width="1" fill="#FFF263" rx="0" ry="0"></rect><rect x="423.5" y="277.5" width="29" height="7" stroke="#FFFFFF" stroke-width="1" fill="#6AF9C4" rx="0" ry="0"></rect><rect x="482.5" y="273.5" width="29" height="11" stroke="#FFFFFF" stroke-width="1" fill="#2F7ED8" rx="0" ry="0"></rect></g><g class="highcharts-markers highcharts-series-0" transform="translate(64,44) scale(1 1)" clip-path="none"></g><g class="highcharts-series highcharts-series-1" transform="translate(64,44) scale(1 1)" clip-path="url(#highcharts-65)"></g><g class="highcharts-markers highcharts-series-1" transform="translate(64,44) scale(1 1)" clip-path="none"></g></g><text x="300" text-anchor="middle" class="highcharts-title" style="color:#000;font-size:16px;font-family:'trebuchet ms', verdana, sans-serif;text-transform:none;font-weight:bold;fill:#000;width:536px;" y="22"><tspan>Browser Market Share September 2018</tspan></text><g class="highcharts-data-labels highcharts-series-0" transform="translate(64,44) scale(1 1)" opacity="1"><g style="cursor:pointer;" transform="translate(14,48)"><text x="5" style="font-size: 10px; font-weight: bold; font-family: 'arial', sans-serif; color: rgb(0, 0, 0); fill: rgb(0, 0, 0); text-rendering: geometricprecision; text-shadow: none;" y="15"><tspan>60.6</tspan></text></g><g style="cursor:pointer;" transform="translate(70,210)"><text x="5" style="font-size: 10px; font-weight: bold; font-family: 'arial', sans-serif; color: rgb(0, 0, 0); fill: rgb(0, 0, 0); text-rendering: geometricprecision; text-shadow: none;" y="15"><tspan>14.85</tspan></text></g><g style="cursor:pointer;" transform="translate(131,244)"><text x="5" style="font-size: 10px; font-weight: bold; font-family: 'arial', sans-serif; color: rgb(0, 0, 0); fill: rgb(0, 0, 0); text-rendering: geometricprecision; text-shadow: none;" y="15"><tspan>5.42</tspan></text></g><g style="cursor:pointer;" transform="translate(190,245)"><text x="5" style="font-size:10px;font-weight:bold;font-family:'arial', sans-serif;color:#000;text-shadow:none;fill:#000;text-rendering:geometricprecision;" y="15"><tspan>5.01</tspan></text></g><g style="cursor:pointer;" transform="translate(248,251)"><text x="5" style="font-size:10px;font-weight:bold;font-family:'arial', sans-serif;color:#000;text-shadow:none;fill:#000;text-rendering:geometricprecision;" y="15"><tspan>3.38</tspan></text></g><g style="cursor:pointer;" transform="translate(306,253)"><text x="5" style="font-size:10px;font-weight:bold;font-family:'arial', sans-serif;color:#000;text-shadow:none;fill:#000;text-rendering:geometricprecision;" y="15"><tspan>2.85</tspan></text></g><g style="cursor:pointer;" transform="translate(365,253)"><text x="5" style="font-size:10px;font-weight:bold;font-family:'arial', sans-serif;color:#000;text-shadow:none;fill:#000;text-rendering:geometricprecision;" y="15"><tspan>2.82</tspan></text></g><g style="cursor:pointer;" transform="translate(423,256)"><text x="5" style="font-size:10px;font-weight:bold;font-family:'arial', sans-serif;color:#000;text-shadow:none;fill:#000;text-rendering:geometricprecision;" y="15"><tspan>1.99</tspan></text></g><g style="cursor:pointer;" transform="translate(482,252)"><text x="5" style="font-size:10px;font-weight:bold;font-family:'arial', sans-serif;color:#000;text-shadow:none;fill:#000;text-rendering:geometricprecision;" y="15"><tspan>3.07</tspan></text></g></g><g class="highcharts-data-labels highcharts-series-1" transform="translate(64,44) scale(1 1)" opacity="1"></g><g class="highcharts-legend" transform="translate(259,360)"><g><g></g></g></g><g class="highcharts-axis-labels highcharts-xaxis-labels"><text x="93.22222222222223" style="color:#000;cursor:default;font-size:11px;font-family:trebuchet ms, verdana, sans-serif;text-transform:none;font-weight:normal;fill:#000;" text-anchor="middle" transform="translate(0,0)" y="347" opacity="1">Chrome</text><text x="151.66666666666666" style="color:#000;cursor:default;font-size:11px;font-family:trebuchet ms, verdana, sans-serif;text-transform:none;font-weight:normal;fill:#000;" text-anchor="middle" transform="translate(0,0)" y="347" opacity="1">Safari</text><text x="210.11111111111111" style="color:#000;cursor:default;font-size:11px;font-family:trebuchet ms, verdana, sans-serif;text-transform:none;font-weight:normal;fill:#000;width:58.44444444444444;text-overflow:ellipsis;" text-anchor="middle" transform="translate(0,0)" y="347" opacity="1"><tspan>UC Brows…</tspan><title>UC Browser</title></text><text x="268.55555555555554" style="color:#000;cursor:default;font-size:11px;font-family:trebuchet ms, verdana, sans-serif;text-transform:none;font-weight:normal;fill:#000;" text-anchor="middle" transform="translate(0,0)" y="347" opacity="1">Firefox</text><text x="327" style="color:#000;cursor:default;font-size:11px;font-family:trebuchet ms, verdana, sans-serif;text-transform:none;font-weight:normal;fill:#000;" text-anchor="middle" transform="translate(0,0)" y="347" opacity="1">Opera</text><text x="385.44444444444446" style="color:#000;cursor:default;font-size:11px;font-family:trebuchet ms, verdana, sans-serif;text-transform:none;font-weight:normal;fill:#000;" text-anchor="middle" transform="translate(0,0)" y="347" opacity="1">IE</text><text x="443.88888888888886" style="color:#000;cursor:default;font-size:11px;font-family:trebuchet ms, verdana, sans-serif;text-transform:none;font-weight:normal;fill:#000;width:58.44444444444444;text-overflow:ellipsis;" text-anchor="middle" transform="translate(0,0)" y="347" opacity="1"><tspan>Samsung …</tspan><title>Samsung Internet</title></text><text x="502.3333333333333" style="color:#000;cursor:default;font-size:11px;font-family:trebuchet ms, verdana, sans-serif;text-transform:none;font-weight:normal;fill:#000;" text-anchor="middle" transform="translate(0,0)" y="347" opacity="1">Edge</text><text x="560.7777777777778" style="color:#000;cursor:default;font-size:11px;font-family:trebuchet ms, verdana, sans-serif;text-transform:none;font-weight:normal;fill:#000;" text-anchor="middle" transform="translate(0,0)" y="347" opacity="1">Other</text></g><g class="highcharts-axis-labels highcharts-yaxis-labels"><text x="49" style="color:#000;cursor:default;font-size:11px;font-family:trebuchet ms, verdana, sans-serif;text-transform:none;font-weight:normal;fill:#000;width:188px;text-overflow:clip;" text-anchor="end" transform="translate(0,0)" y="333" opacity="1"><tspan>0</tspan></text><text x="49" style="color:#000;cursor:default;font-size:11px;font-family:trebuchet ms, verdana, sans-serif;text-transform:none;font-weight:normal;fill:#000;width:188px;text-overflow:clip;" text-anchor="end" transform="translate(0,0)" y="262" opacity="1"><tspan>20</tspan></text><text x="49" style="color:#000;cursor:default;font-size:11px;font-family:trebuchet ms, verdana, sans-serif;text-transform:none;font-weight:normal;fill:#000;width:188px;text-overflow:clip;" text-anchor="end" transform="translate(0,0)" y="191" opacity="1"><tspan>40</tspan></text><text x="49" style="color:#000;cursor:default;font-size:11px;font-family:trebuchet ms, verdana, sans-serif;text-transform:none;font-weight:normal;fill:#000;width:188px;text-overflow:clip;" text-anchor="end" transform="translate(0,0)" y="120" opacity="1"><tspan>60</tspan></text><text x="49" style="color:#000;cursor:default;font-size:11px;font-family:trebuchet ms, verdana, sans-serif;text-transform:none;font-weight:normal;fill:#000;width:188px;text-overflow:clip;" text-anchor="end" transform="translate(0,0)" y="49" opacity="1"><tspan>80</tspan></text></g><g class="highcharts-tooltip" display="none" style="cursor:default;padding:0;pointer-events:none;white-space:nowrap;" transform="translate(0,0)"><path fill="rgb(255, 255, 255)" fill-opacity=" 0.85" d="M 3.5 0.5 L 13.5 0.5 C 16.5 0.5 16.5 0.5 16.5 3.5 L 16.5 13.5 C 16.5 16.5 16.5 16.5 13.5 16.5 L 3.5 16.5 C 0.5 16.5 0.5 16.5 0.5 13.5 L 0.5 3.5 C 0.5 0.5 0.5 0.5 3.5 0.5"></path><text x="8" style="font-size:12px;color:#333;fill:#333;" y="20"></text></g></svg>